<svg xmlns:dc="http://purl.org/dc/elements/1.1/" xmlns:cc="http://creativecommons.org/ns#" xmlns:rdf="http://www.w3.org/1999/02/22-rdf-syntax-ns#" xmlns:svg="http://www.w3.org/2000/svg" xmlns="http://www.w3.org/2000/svg" xmlns:sodipodi="http://sodipodi.sourceforge.net/DTD/sodipodi-0.dtd" xmlns:inkscape="http://www.inkscape.org/namespaces/inkscape" viewBox="0 0 80 100" version="1.1" x="0px" y="0px"><path style="" d="m 33.961141,38.722372 c 0.142825,-0.48197 0.333544,-1.331368 0.423817,-1.887552 l 0.164136,-1.011243 -0.630639,0.879336 c -1.177427,1.641756 -2.711064,2.688359 -4.587419,3.130603 -1.198901,0.28257 -2.036959,0.287727 -3.350246,0.02061 -4.021835,-0.818012 -6.684858,-4.922674 -5.861455,-9.034579 0.270549,-1.35106 1.393619,-3.272345 2.438122,-4.170997 2.337423,-2.011034 5.490473,-2.420553 8.503151,-1.104389 l 0.755965,0.330266 -0.660413,-0.764318 c -1.231412,-1.425156 -1.999304,-2.055245 -3.741402,-3.069986 -2.818455,-1.641713 -5.368632,-2.228824 -8.508587,-1.958915 -4.63847,0.398722 -8.816935,3.051439 -11.1833849,7.099825 -3.149288,5.38762 -2.4852357,12.216801 1.6355008,16.819671 1.2212781,1.36417 1.9058651,1.920296 3.5390601,2.874967 1.633195,0.95467 2.453676,1.278318 4.241578,1.67314 5.084833,1.122881 10.497019,-0.69355 13.976885,-4.690902 0.874857,-1.004958 2.479596,-3.901352 2.845329,-5.135538 z M 32.72137,43.907719 C 28.860053,48.917049 22.298677,51.159095 16.304952,49.517268 12.76778,48.548351 9.8225683,46.533268 7.7286297,43.649437 4.9896872,39.877292 4.0482867,34.861766 5.2536563,30.463458 6.025936,27.645462 7.3719084,25.348692 9.4656818,23.275998 13.241431,19.538321 19.168206,17.993745 24.319756,19.40488 c 2.807672,0.76909 5.098521,2.109211 7.152536,4.184198 5.340555,5.394953 5.888,14.300483 1.24904,20.318657 z" fill="#000000"/><path style="" d="m 73.671881,31.305322 c -0.638783,-2.711606 -1.637979,-4.64153 -3.442978,-6.650023 -5.379872,-5.986399 -14.650524,-6.348862 -20.50626,-0.801753 -2.333902,2.210893 -3.532728,4.406463 -4.359665,7.984431 -0.194757,0.842665 -0.203993,3.50264 -0.0164,4.723552 0.30339,1.974575 1.144778,4.114766 2.300928,5.852741 0.578515,0.869649 2.476663,2.985725 2.684343,2.992535 0.06002,0.002 -0.06321,-0.412244 -0.273861,-0.920473 -1.170236,-2.823464 -0.41647,-6.2332 1.846403,-8.352379 3.095763,-2.899183 7.858612,-2.788525 10.746762,0.249684 1.600118,1.683253 2.253125,3.436923 2.137397,5.740029 -0.05023,0.999732 -0.135865,1.401782 -0.495683,2.327378 -0.615381,1.582999 -1.778164,2.942128 -3.275153,3.828186 -0.641094,0.379459 -0.708591,0.453586 -0.421984,0.463438 0.187648,0.0064 0.867006,-0.087 1.509685,-0.207663 1.924874,-0.3614 3.732685,-1.056449 5.171236,-1.988182 3.506655,-2.271227 5.727233,-5.597556 6.540276,-9.797049 0.26171,-1.351781 0.190644,-4.019481 -0.145043,-5.444452 z m 1.248118,4.853411 c -0.591159,5.510556 -3.986323,10.174315 -9.076864,12.46841 -2.296508,1.034941 -4.224466,1.413792 -6.79025,1.334312 -2.053424,-0.06363 -3.034674,-0.24361 -4.821192,-0.884399 -2.939461,-1.054329 -5.743384,-3.187874 -7.492029,-5.700794 -2.081067,-2.99063 -3.093807,-7.032842 -2.674817,-10.676156 0.175166,-1.523156 0.284958,-1.994987 0.804555,-3.457558 1.512653,-4.257843 4.808206,-7.646288 9.025377,-9.279777 3.516505,-1.36209 7.687923,-1.361295 11.196854,0.0021 2.2096,0.858564 3.771659,1.890419 5.42049,3.580639 1.37232,1.40677 2.24072,2.639478 3.003442,4.26344 1.26175,2.686474 1.71982,5.409828 1.404434,8.349744 z" fill="#000000"/><text x="0" y="95" fill="#000000" font-size="5px" font-weight="bold" font-family="'Helvetica Neue', Helvetica, Arial-Unicode, Arial, Sans-serif">Created by James Keuning</text><text x="0" y="100" fill="#000000" font-size="5px" font-weight="bold" font-family="'Helvetica Neue', Helvetica, Arial-Unicode, Arial, Sans-serif">from the Noun Project</text></svg>